PathFileType	4	(X/Y/Z)	C:/Users/opensim2020/Desktop/walking_exp_matlab/subject01_walking12_straight_04.trc	
DataRate	CameraRate	NumFrames	NumMarkers	Units	OrigDataRate	OrigDataStartFrame	OrigNumFrames	
100.00	100.00	8	44	mm	100.00	2415	172	
Frame#	Time	LFHD			RFHD			LBHD			RBHD			C7			T10			CLAV			STRN			RBAK			LSHO			LUPA			LELB			LFRM			LWRA			LWRB			LFIN			RSHO			RUPA			RELB			RFRM			RWRA			RWRB			RFIN			LASI			RASI			LPSI			RPSI			LTHI			LKNE			LTIB			LANK			LHEE			LTOE			RTHI			RKNE			RTIB			RANK			RHEE			RTOE			*39			*40			*41			*42			*43			
		X1	Y1	Z1	X2	Y2	Z2	X3	Y3	Z3	X4	Y4	Z4	X5	Y5	Z5	X6	Y6	Z6	X7	Y7	Z7	X8	Y8	Z8	X9	Y9	Z9	X10	Y10	Z10	X11	Y11	Z11	X12	Y12	Z12	X13	Y13	Z13	X14	Y14	Z14	X15	Y15	Z15	X16	Y16	Z16	X17	Y17	Z17	X18	Y18	Z18	X19	Y19	Z19	X20	Y20	Z20	X21	Y21	Z21	X22	Y22	Z22	X23	Y23	Z23	X24	Y24	Z24	X25	Y25	Z25	X26	Y26	Z26	X27	Y27	Z27	X28	Y28	Z28	X29	Y29	Z29	X30	Y30	Z30	X31	Y31	Z31	X32	Y32	Z32	X33	Y33	Z33	X34	Y34	Z34	X35	Y35	Z35	X36	Y36	Z36	X37	Y37	Z37	X38	Y38	Z38	X39	Y39	Z39	X40	Y40	Z40	X41	Y41	Z41	X42	Y42	Z42	X43	Y43	Z43	X44	Y44	Z44	

44	0.430	1512.00037	433.05484	1669.77612	1400.24463	414.95410	1670.20630	1501.01111	551.95349	1633.61938	1381.44385	535.65747	1632.85388	1455.99365	598.89801	1434.32019	1443.83093	635.07983	1139.94788	1468.83862	455.90512	1364.79443	1481.05872	414.65353	1211.25549	1374.33447	646.44226	1237.87317	1622.82495	532.65698	1398.69678	1709.51990	583.71051	1223.38049	1725.35461	599.72595	1070.94971	1768.42651	534.50513	980.34448	1779.50281	419.21320	902.62732	1790.20142	472.67798	877.44672	1820.67407	409.15158	832.41779	1311.95715	503.71924	1392.02722	1205.03784	570.60760	1199.16309	1199.96191	584.42657	1074.74500	1171.21094	569.44934	954.82367	1198.94275	508.93628	827.74805	1153.48779	546.86816	835.11707	1160.71045	522.47925	752.39099	1576.12207	475.23068	932.35681	1361.50745	440.89636	936.59424	1495.28821	650.46423	941.78394	1352.10120	626.57324	948.04852	1646.34875	490.62277	600.98840	1644.12769	496.83951	467.99057	1639.25916	647.95416	361.43704	1572.66406	814.69214	229.59846	1508.57214	850.09589	241.98093	1587.27576	778.72278	88.01594	1311.92041	461.49881	602.22717	1347.39917	440.41974	446.87219	1346.27502	490.53696	276.02322	1400.48169	518.77655	75.95161	1448.38342	570.55951	39.44674	1404.59961	379.87100	37.36739	1420.67163	424.98212	1705.24268	-3101.94702	1973.19202	1023.43573	-3140.86792	2012.52576	1022.13104						 
45	0.440	1512.18359	421.62164	1670.09155	1400.44434	403.35513	1670.49438	1501.00452	540.58112	1634.26892	1381.43225	524.21295	1633.47217	1455.99988	588.00836	1435.00513	1443.76282	624.67285	1140.67615	1469.02417	445.25143	1365.16772	1481.03284	404.27466	1211.53101	1374.21082	635.92920	1238.74316	1623.05847	522.07196	1399.26050	1708.77527	574.99451	1223.85974	1723.51550	592.69104	1071.57776	1765.91272	529.49841	979.31598	1776.45239	415.99167	898.87537	1786.93811	469.99960	874.90198	1816.71411	407.59567	827.91266	1312.06360	492.93588	1392.76221	1204.60913	558.25543	1199.64490	1199.17273	570.99622	1075.08594	1170.81140	553.78644	955.31506	1198.85864	490.89755	829.46765	1153.95093	528.22876	836.11945	1160.46484	502.44437	754.09906	1575.62341	464.07571	933.51752	1360.58301	431.06134	936.83716	1496.10254	639.72858	942.43726	1352.75220	616.90155	948.19250	1646.34143	472.49631	602.92102	1644.37256	475.68121	470.01065	1638.56689	626.04596	363.17755	1572.61230	791.52625	229.24168	1508.04639	827.93549	239.29872	1591.36389	751.07269	90.15272	1312.15259	455.54892	602.18298	1347.15527	436.36322	446.07278	1346.69958	488.26169	276.06979	1400.47766	518.51355	76.16102	1448.70764	570.56274	39.97277	1404.56726	379.52603	37.18237	1420.85657	413.22940	1705.60962	-3101.89160	1973.13184	1023.51910	-3140.80664	2012.52112	1022.11938						 
46	0.450	1512.44141	410.16653	1670.24377	1400.70032	391.68307	1670.66589	1501.14929	529.23187	1634.82471	1381.59509	512.70227	1634.02356	1456.09827	577.23279	1435.62878	1443.78601	614.31451	1141.32825	1469.24268	434.61197	1365.57520	1480.95178	393.91119	1211.84766	1373.90771	625.42859	1239.53809	1623.18933	511.51303	1399.61829	1708.18616	566.04901	1224.31238	1721.63367	585.66681	1072.14709	1763.38477	524.55304	978.32062	1773.30688	412.83179	895.11627	1783.75403	467.62717	872.53699	1812.66724	406.02228	823.35480	1312.26721	482.17929	1393.47156	1204.27271	545.84088	1200.09607	1198.38147	557.64319	1075.37891	1170.46082	538.03210	955.77118	1199.13281	472.94647	831.39117	1153.77039	510.52728	837.02264	1160.39661	482.28815	755.95569	1574.94922	453.05432	934.54327	1359.70032	421.35599	936.98370	1497.10693	629.06580	943.16663	1353.57019	607.27893	948.36884	1646.21814	454.80365	604.86230	1644.38062	455.14682	471.97629	1637.95239	604.58051	364.98489	1572.59888	767.86041	227.76378	1507.83752	805.29041	235.27451	1595.14038	721.97235	91.52010	1312.16882	449.27975	601.87238	1347.22205	432.19882	445.56873	1347.07288	485.45990	276.13257	1400.59558	517.98700	76.37092	1448.79028	569.80347	40.95174	1404.66821	379.19257	37.01331	1421.13647	401.52002	1705.78857	-3101.93286	1973.09009	1023.52380	-3140.70801	2012.55127	1022.11371						 
47	0.460	1512.81836	398.72824	1670.29565	1401.05896	380.17001	1670.69067	1501.37402	517.86816	1635.29602	1381.85486	501.25433	1634.50464	1456.24646	566.52490	1436.12073	1443.77722	603.99017	1141.82947	1469.36792	424.01642	1365.90063	1480.81543	383.49857	1212.08569	1373.61609	614.99133	1240.33154	1623.40906	500.94022	1399.94214	1707.71680	556.96179	1224.76953	1719.67407	578.68530	1072.70898	1760.80981	519.66046	977.34821	1770.18286	409.78915	891.54443	1780.34998	464.94870	870.10211	1808.55469	404.68393	818.97485	1312.42517	471.65720	1394.07971	1203.97485	533.86951	1200.62891	1197.77905	544.44391	1075.63318	1170.24426	522.36371	956.24139	1199.16492	454.26544	833.48358	1153.96484	492.38623	838.09644	1160.30737	462.02988	757.96466	1574.31519	440.87009	935.66119	1358.88672	411.80573	937.04492	1498.20837	618.40717	943.86780	1354.52014	597.77777	948.63776	1646.14160	437.68024	606.94391	1644.17163	435.44131	474.04285	1637.27710	583.48907	366.67474	1572.77747	743.63153	225.19437	1507.94385	782.04907	230.12112	1598.41553	692.08295	92.18142	1312.49744	443.13220	601.69379	1347.50989	427.74881	444.83585	1347.29651	482.31451	275.85281	1400.78296	517.13422	76.25198	1448.82117	569.65930	41.38171	1404.77197	378.88516	36.86715	1421.55591	389.89651	1705.87341	-3101.94434	1973.13135	1023.51288	-3140.75806	2012.47485	1022.04425						 
48	0.470	1513.33069	387.29803	1670.27942	1401.56958	368.71286	1670.65527	1501.73608	506.58142	1635.67334	1382.16956	489.86499	1634.95435	1456.39111	555.86969	1436.49585	1443.84912	593.69263	1142.24060	1469.54358	413.48724	1366.15552	1480.68372	373.21094	1212.25647	1373.25513	604.55762	1240.99304	1623.62170	490.40701	1400.17236	1707.35608	547.80878	1225.12268	1717.69458	571.65131	1073.21667	1758.19629	514.82196	976.33899	1766.93286	406.77408	887.91028	1776.93518	462.43536	867.72943	1804.37183	403.36044	814.56732	1312.75537	461.15421	1394.59070	1203.78174	521.78687	1201.05017	1197.19238	531.49512	1075.80530	1170.15173	506.71008	956.69458	1199.40271	435.59903	836.02740	1154.30066	474.13452	839.35876	1160.35156	441.63470	760.11163	1573.43774	430.24347	936.27148	1358.07446	402.14389	937.28485	1499.38025	607.84637	944.49756	1355.58435	588.33057	948.89514	1646.12341	420.97562	609.13489	1644.11841	416.22806	476.46378	1636.28906	562.43988	367.55377	1573.14832	718.69904	221.57175	1508.58301	758.15533	224.02103	1601.68176	661.16986	92.35548	1312.73547	436.99744	601.37341	1347.64709	423.40860	444.10217	1347.43982	479.48587	275.64783	1400.88171	516.64435	76.30462	1448.60583	569.87976	41.43317	1404.68665	378.28174	37.07601	1422.07458	378.23721	1705.84595	-3102.02417	1973.01318	1023.71698	-3140.84741	2012.45227	1022.01318						 
49	0.480	1513.90186	375.85339	1670.07971	1402.18909	357.24905	1670.55896	1502.21631	495.25107	1635.93909	1382.68274	478.47336	1635.32410	1456.58606	545.21283	1436.77991	1443.88794	583.40253	1142.54871	1469.64172	402.96973	1366.28918	1480.55542	362.86453	1212.36133	1373.01648	594.12299	1241.52612	1623.85059	479.86240	1400.31226	1707.03369	538.58698	1225.34460	1715.78467	564.46570	1073.66638	1755.60913	509.95270	975.28290	1763.52295	403.79828	884.17786	1773.43103	459.96933	865.30957	1800.22620	402.16400	810.34296	1312.81970	450.75650	1395.14075	1203.59839	510.23590	1201.58862	1196.75439	518.79694	1075.89893	1170.10083	491.30884	957.18848	1199.67188	417.16968	838.49866	1154.73230	455.87177	840.58997	1160.66455	421.29266	762.52313	1572.88184	419.36624	936.92419	1357.19666	392.78302	937.17786	1500.57336	597.30170	945.07086	1356.65234	578.94287	949.09210	1646.22461	404.58810	611.28949	1643.71985	397.36914	478.96518	1635.27148	541.07697	367.40634	1573.68323	693.26947	216.88481	1508.93408	733.09564	216.80075	1604.35376	630.29633	90.79375	1313.00037	430.74301	600.72510	1347.77136	419.33035	443.52209	1347.48193	476.93579	275.46265	1400.73779	516.49908	76.46359	1448.56763	569.57599	41.91094	1404.72070	378.08163	36.97310	1422.74939	366.68741	1705.74792	-3101.96216	1973.08508	1023.49243	-3140.73267	2012.55188	1022.10986						 
50	0.490	1514.59680	364.47528	1669.80542	1402.92700	345.84290	1670.36255	1502.80688	484.01630	1636.11426	1383.30286	467.11670	1635.61255	1456.84875	534.62402	1436.99390	1443.98474	573.78357	1142.87256	1469.93665	392.48285	1366.38464	1480.49805	352.57428	1212.36829	1372.84998	583.71558	1241.90857	1624.14661	469.34500	1400.25574	1706.64832	529.35211	1225.37183	1713.95679	557.26953	1074.00708	1752.92224	504.96100	974.09442	1760.10498	400.91559	880.48669	1769.84143	457.52036	862.87598	1796.02808	401.00797	806.09729	1313.12012	440.29227	1395.50439	1203.43152	498.73236	1201.92236	1196.35693	506.36002	1075.93250	1170.11865	476.03775	957.64130	1200.19360	399.40167	840.70544	1155.74622	437.14001	842.00055	1161.26843	400.71881	765.26489	1572.27039	408.54340	937.55707	1356.37598	383.45383	937.04407	1501.74487	586.91028	945.58783	1357.70251	569.58405	949.21393	1646.45483	388.45035	613.49768	1643.14819	379.06525	481.67172	1634.45911	519.53973	366.55197	1574.33813	667.27100	211.13939	1509.47363	707.37360	208.56241	1607.05103	598.88873	88.65925	1313.11450	424.58017	600.29602	1347.70142	415.63434	442.80856	1347.41187	475.03043	275.54657	1400.82605	516.12085	76.79025	1448.73987	569.36401	42.45573	1404.74683	377.87100	36.88074	1423.50452	355.13702	1705.57336	-3102.02832	1973.02820	1023.85333	-3140.76563	2012.43140	1021.98682						 
51	0.500	1515.48425	353.18015	1669.46814	1403.74109	334.38382	1670.24658	1503.48767	472.80655	1636.20923	1384.00122	455.88324	1635.87280	1457.14709	524.05170	1437.12012	1443.97046	562.81348	1142.96436	1470.18164	382.03931	1366.29883	1480.44055	342.24850	1212.26855	1372.82117	573.31189	1242.17773	1624.50598	458.81650	1400.13831	1706.33813	520.18329	1225.30823	1712.25757	549.83124	1074.27087	1750.31543	499.84247	972.84192	1756.55872	397.98911	876.69794	1766.22375	455.06592	860.39008	1791.86255	399.77841	802.10797	1313.22681	429.88324	1395.79077	1203.33557	487.43854	1202.24939	1196.01270	494.09811	1075.88159	1170.23438	460.91687	958.07935	1200.96045	381.53320	843.30005	1156.42395	419.13135	843.51971	1161.85352	380.37436	767.89893	1571.53479	398.00980	937.99866	1355.57141	374.21698	936.71796	1502.80444	576.66113	946.01727	1358.73914	560.28003	949.29163	1646.89026	372.46292	615.48773	1642.47827	360.80499	484.25793	1634.03442	498.03235	364.95148	1574.99329	640.68793	204.46217	1510.22205	680.93506	199.42880	1609.63782	566.95020	85.95574	1313.65979	418.84445	599.92120	1347.55542	411.97797	442.20026	1347.56860	473.20166	275.97824	1401.05481	515.64368	77.21181	1449.03479	570.46045	42.95454	1404.78674	377.66641	36.85159	1424.38049	343.53287	1705.40833	-3102.01611	1972.99634	1023.45374	-3140.75513	2012.53894	1022.06854						 
